<svg id="Icons" height="512" viewBox="0 0 60 60" width="512" xmlns="http://www.w3.org/2000/svg"><path d="m41 42.17v-.17a3 3 0 0 0 -3-3h-28a3 3 0 0 0 -3 3v.17l1.26 6.25a17 17 0 0 0 31.48 0z" fill="#bfd9ef"/><path d="m6 17v14h-1c-2.21 0-4-3.13-4-7s1.79-7 4-7z" fill="#b0cadc"/><path d="m42 17v14h1c2.21 0 4-3.13 4-7s-1.79-7-4-7z" fill="#b0cadc"/><path d="m43 23v8a8 8 0 0 1 -8 8h-22a8 8 0 0 1 -8-8v-14a8 8 0 0 1 8-8h20z" fill="#d7e9ff"/><path d="m39 23v8a4 4 0 0 1 -4 4h-22a4 4 0 0 1 -4-4v-10a4 4 0 0 1 4-4h20z" fill="#193870"/><g fill="#21dbdb"><circle cx="15.5" cy="23.5" r="2.5"/><path d="m34.95 23a2.734 2.734 0 0 1 .05.5 2.5 2.5 0 1 1 -2.5-2.5 2.734 2.734 0 0 1 .5.05"/><path d="m22 27h4a1 1 0 0 1 1 1 3 3 0 0 1 -3 3 3 3 0 0 1 -3-3 1 1 0 0 1 1-1z"/></g><path d="m8.377 48.075c-1.335 3.811-4.509 8.425-6.228 7.882s-1.335-6.044 0-9.854 3.131-4.486 4.851-3.936 2.723 2.098 1.377 5.908z" fill="#d7e9ff"/><path d="m39.623 48.075c1.335 3.811 4.509 8.422 6.227 7.882s1.336-6.044 0-9.854-3.13-4.486-4.85-3.936-2.723 2.098-1.377 5.908z" fill="#d7e9ff"/><path d="m59 3v18a2.006 2.006 0 0 1 -2 2h-2v4.06a.926.926 0 0 1 -1.53.71l-5.47-4.77h-13a2.006 2.006 0 0 1 -2-2v-18a2.006 2.006 0 0 1 2-2h22a2.006 2.006 0 0 1 2 2z" fill="#6ac479"/><circle cx="24" cy="48" fill="#193870" r="4"/><path d="m54 8h-16a1 1 0 0 1 0-2h16a1 1 0 0 1 0 2z" fill="#55a060"/><path d="m54 13h-16a1 1 0 0 1 0-2h16a1 1 0 0 1 0 2z" fill="#55a060"/><path d="m51 18h-13a1 1 0 0 1 0-2h13a1 1 0 0 1 0 2z" fill="#55a060"/></svg>