<svg height="512" viewBox="0 0 64 64" width="512" xmlns="http://www.w3.org/2000/svg"><g id="Twotone"><g id="Color_copy_2" data-name="Color copy 2"><g><path d="m49 53a26 26 0 0 1 -26-26h-8v28a6 6 0 1 0 -6 6h52v-8z" fill="#cff09e"/><g><rect fill="#a8dba8" height="4" rx="2" width="14" x="23" y="23"/><path d="m25 27h10a0 0 0 0 1 0 0v1a5 5 0 0 1 -5 5 5 5 0 0 1 -5-5v-1a0 0 0 0 1 0 0z" fill="#79bd9a"/><path d="m27 12a8.948 8.948 0 0 1 1.422-4.843 8 8 0 0 0 -3.422 14.083v1.76h10v-1.76c.107-.086.2-.184.306-.275a8.995 8.995 0 0 1 -8.306-8.965z" fill="#cff09e"/></g><path d="m43 45a6.065 6.065 0 0 0 -.1-1.094l2.032-1.174-2-3.464-2.032 1.174a5.965 5.965 0 0 0 -1.9-1.093v-2.349h-4v2.349a5.965 5.965 0 0 0 -1.9 1.093l-2.033-1.174-2 3.464 2.033 1.174a5.806 5.806 0 0 0 0 2.188l-2.032 1.174 2 3.464 2.032-1.174a5.965 5.965 0 0 0 1.9 1.093v2.349h4v-2.349a5.965 5.965 0 0 0 1.9-1.093l2.033 1.174 2-3.464-2.033-1.174a6.065 6.065 0 0 0 .1-1.094zm-6 2a2 2 0 1 1 2-2 2 2 0 0 1 -2 2z" fill="#a8dba8"/><circle cx="23" cy="54" fill="#a8dba8" r="2"/><g><path d="m49 13h8v25h-8z" fill="#79bd9a" transform="matrix(-1 0 0 -1 106 51)"/><path d="m53 48 4-10h-8z" fill="#a8dba8"/><path d="m49 3h8a0 0 0 0 1 0 0v2a4 4 0 0 1 -4 4 4 4 0 0 1 -4-4v-2a0 0 0 0 1 0 0z" fill="#cff09e" transform="matrix(-1 0 0 -1 106 12)"/><path d="m49 9h8v4h-8z" fill="#a8dba8" transform="matrix(-1 0 0 -1 106 22)"/><path d="m50.6 42h4.8l-2.4 6z" fill="#79bd9a"/></g><path d="m10 33.194v-16.104a5.967 5.967 0 0 0 -7 5.91v32a6 6 0 0 1 12 0v-6.276a26.636 26.636 0 0 1 -5-15.53z" fill="#cff09e"/></g></g><g id="Stroke_Close_copy" data-name="Stroke Close copy"><g fill="#3b8686"><path d="m61 26h-3v-19a5 5 0 0 0 -10 0v19h-10.184a2.947 2.947 0 0 0 -1.816-3.816v-.484a9 9 0 1 0 -12 0v.481a2.947 2.947 0 0 0 -1.816 3.819h-6.184v-3a7 7 0 0 0 -14 0v32a7.008 7.008 0 0 0 7 7h52a1 1 0 0 0 1-1v-34a1 1 0 0 0 -1-1zm-6.277 15h-3.446l-.8-2h5.046zm-2.646 2h1.846l-.923 2.308zm3.923-6h-2v-23h2zm-6 0v-23h2v23zm6-25h-6v-2h6zm-6-5a3 3 0 0 1 6 0v1h-6zm-20 25a4 4 0 0 1 -4-4h8a4 4 0 0 1 -4 4zm-7-17a7 7 0 1 1 11.374 5.46 1 1 0 0 0 -.374.78v.76h-.883l.877-7.89a1 1 0 0 0 -1.31-1.059l-2.684.895-2.684-.895a1 1 0 0 0 -1.31 1.059l.877 7.89h-.883v-.76a1 1 0 0 0 -.374-.78 6.971 6.971 0 0 1 -2.626-5.46zm5.167.443 1.517.506a1 1 0 0 0 .632 0l1.517-.506-.728 6.557h-2.205zm-4.167 9.557a1 1 0 0 1 1-1h10a1 1 0 0 1 0 2h-10a1 1 0 0 1 -1-1zm-20-2a5 5 0 0 1 10 0v27.1a6.991 6.991 0 0 0 -10 0zm56 37h-51a5 5 0 1 1 5-5 1 1 0 0 0 2 0v-27h8a6.007 6.007 0 0 0 4.138 5.7 8.3 8.3 0 0 1 -3.879 2.2l-1.525.382a4.931 4.931 0 0 0 1.196 9.718h2.07a1 1 0 0 0 0-2h-2.07a2.931 2.931 0 0 1 -.71-5.774l1.525-.381a10.3 10.3 0 0 0 5.779-3.871 6.005 6.005 0 0 0 5.476-5.974h12v10c0 .014.007.025.008.039a.987.987 0 0 0 .063.333l1.6 4 2.4 6a1 1 0 0 0 1.858 0l2.4-6 1.6-4a.988.988 0 0 0 .063-.334c0-.013.008-.024.008-.038v-10h2z"/><circle cx="18" cy="15" r="1"/><circle cx="42" cy="15" r="1"/><circle cx="30" cy="3" r="1"/><path d="m19.108 9.866a1 1 0 1 0 -.366-1.366 1 1 0 0 0 .366 1.366z"/><path d="m39.892 21.866a1 1 0 1 0 -.366-1.366 1 1 0 0 0 .366 1.366z"/><circle cx="36" cy="4.608" r="1" transform="matrix(.966 -.259 .259 .966 .034 9.475)"/><path d="m40.892 9.866a1 1 0 1 0 -1.366-.366 1 1 0 0 0 1.366.366z"/><path d="m19.108 20.134a1 1 0 1 0 1.366.366 1 1 0 0 0 -1.366-.366z"/><path d="m24.5 5.474a1 1 0 1 0 -1.366-.366 1 1 0 0 0 1.366.366z"/><path d="m40 53v-1.681a6.87 6.87 0 0 0 .974-.561l1.454.84a1 1 0 0 0 1.366-.366l2-3.464a1 1 0 0 0 -.366-1.366l-1.452-.839c.016-.189.024-.376.024-.563s-.008-.374-.024-.563l1.452-.839a1 1 0 0 0 .366-1.366l-2-3.464a1 1 0 0 0 -1.366-.366l-1.454.84a6.87 6.87 0 0 0 -.974-.561v-1.681a1 1 0 0 0 -1-1h-4a1 1 0 0 0 -1 1v1.681a6.87 6.87 0 0 0 -.974.561l-1.454-.84a1 1 0 0 0 -1.366.366l-2 3.464a1 1 0 0 0 .366 1.366l1.452.839c-.016.189-.024.376-.024.563s.008.374.024.563l-1.452.839a1 1 0 0 0 -.366 1.366l2 3.464a1 1 0 0 0 1.366.366l1.454-.84a6.87 6.87 0 0 0 .974.561v1.681a1 1 0 0 0 1 1h4a1 1 0 0 0 1-1zm-2-2.349v1.349h-2v-1.349a1 1 0 0 0 -.666-.942 4.994 4.994 0 0 1 -1.58-.911 1 1 0 0 0 -1.15-.106l-1.166.674-1-1.732 1.162-.674a1 1 0 0 0 .484-1.047 4.78 4.78 0 0 1 0-1.826 1 1 0 0 0 -.484-1.047l-1.166-.674 1-1.732 1.166.674a1 1 0 0 0 1.15-.106 4.994 4.994 0 0 1 1.58-.911 1 1 0 0 0 .67-.942v-1.349h2v1.349a1 1 0 0 0 .666.942 4.994 4.994 0 0 1 1.58.911 1 1 0 0 0 1.15.106l1.166-.674 1 1.732-1.162.674a1 1 0 0 0 -.484 1.047 4.78 4.78 0 0 1 0 1.826 1 1 0 0 0 .484 1.047l1.166.674-1 1.732-1.166-.674a1 1 0 0 0 -1.15.106 4.994 4.994 0 0 1 -1.58.911 1 1 0 0 0 -.67.942z"/><path d="m37 42a3 3 0 1 0 3 3 3 3 0 0 0 -3-3zm0 4a1 1 0 1 1 1-1 1 1 0 0 1 -1 1z"/><path d="m53 51a1 1 0 0 0 -1 1v2a2 2 0 0 1 -2 2h-12a1 1 0 0 0 0 2h12a4 4 0 0 0 4-4v-2a1 1 0 0 0 -1-1z"/><path d="m23 51a3 3 0 1 0 3 3 3 3 0 0 0 -3-3zm0 4a1 1 0 1 1 1-1 1 1 0 0 1 -1 1z"/></g></g></g></svg>