<svg id="圖層_1" enable-background="new 0 0 275.6 363.6" height="512" viewBox="0 0 275.6 363.6" width="512" xmlns="http://www.w3.org/2000/svg"><g><path d="m130.1 31.2c8.3-24.1 34.4-35.4 63.8-29.7 22 4.3 34.3 22.2 38.9 43.2s-1 40-2.1 61.5c-.9 18.3-.1 38.2 11.6 52.3 7.9 9.6 21.6 15.3 33.3 11.1-17.8 17.4-30.1 21.4-42.6 23-14.6 1.9-28.8.5-48.3-10s-36.7-38-47.2-72c-7.4-24.1-15.8-55.3-7.4-79.4z" fill="#cf534a"/></g><g><path d="m217 127.3c-2.1-21.4.7-41-6.9-61.1s-22.4-36.1-44.8-37.1c-14.1-.6-26.9 2.3-37 8.3-5.2 23.1 2.4 51.1 9.2 73.2 10.5 34 27.7 61.5 47.2 72s33.7 11.9 48.3 10c6.8-.9 13.6-2.4 21.2-6.5-6.6-1-13.1-4.1-18.1-8.7-13.6-12.3-17.3-31.9-19.1-50.1z" fill="#ad3d34"/></g><g><path d="m203.1 100.8c-5.8-25-14.4-41.6-42.5-59.3-19-12-39.6-14.2-57.6-14.4-18 .2-38.6 2.4-57.7 14.4-28.2 17.7-36.8 34.3-42.6 59.3-5.9 25.7-2 48.5 9.9 72.2 11.5 23 35.5 41.8 55.4 47.5 13.8 3.9 25.2 6.2 34.9 7.1 9.7-.9 21.1-3.2 34.9-7.1 19.9-5.7 43.9-24.5 55.4-47.5 11.9-23.7 15.8-46.5 9.9-72.2z" fill="#cf534a"/></g><path d="m175.4 188.7h.9c9.2 0 16.6-7.4 16.6-16.6 0-7.5-5-13.8-11.8-15.8-.1-5.1-.5-10.3-1.5-15.6-7.5-42.7-41-59.4-76.7-59.4-35.8 0-69.2 16.7-76.7 59.4-.9 5.3-1.4 10.5-1.5 15.6-6.8 2-11.8 8.3-11.8 15.8 0 9.2 7.4 16.6 16.6 16.6h.9c9.6 25.3 30.8 43.9 57.1 49.2v6.9c0 6.9-4.3 13.3-10.9 15.8-36.7 14.2-47.2 60.8-49.1 102.8h150.9c-1.8-42.1-12.3-88.6-49.1-102.8-6.6-2.6-10.9-8.9-10.9-15.8v-6.9c26.3-5.3 47.4-23.9 57-49.2z" fill="#e6c2aa"/><g><path d="m63.4 150.4c-1.9 0-3.6 1-5 2.7-2.3.3-4.6-.1-6.1-1.5-.7-.7-1.8-.6-2.5.1s-.6 1.8.1 2.5c1.7 1.7 4.1 2.4 6.5 2.5-.7 1.8-1.1 4-1.1 6.3 0 6.9 3.6 12.5 8.1 12.5 4.4 0 8.1-5.6 8.1-12.5s-3.6-12.6-8.1-12.6z"/><path d="m155.9 151.7c-.7-.7-1.8-.7-2.5-.1-1.5 1.4-3.8 1.8-6.1 1.5-1.4-1.7-3.1-2.7-5-2.7-4.4 0-8.1 5.6-8.1 12.5s3.6 12.5 8.1 12.5c4.4 0 8.1-5.6 8.1-12.5 0-2.3-.4-4.4-1.1-6.3 2.4-.1 4.8-.9 6.5-2.5.8-.6.8-1.7.1-2.4z"/></g><g><path d="m88.8 193.6c1.6 6.4 7.3 11.1 14.2 11.1 6.8 0 12.6-4.7 14.2-11.1z" fill="#cf534a"/></g><path d="m167.8 91.9c-16.2-18.7-37.6-34.6-64.5-34.6s-50.1 12.9-66.6 30.9c-16.6 18-21.1 51.2-21.1 51.2 7.5 6.6 20.8 7.5 30.3 5.4 15.6-3.5 36-15.5 48.8-35l-11.8 30.5c.4.1 9.8-7.1 15-19.5 3.6-8.5 4.7-20.1 4.9-27.1.1-.1.1-.3.2-.4.1.4.3.9.5 1.3.3 5.7.5 12.4 2.7 19.4 2.8 8.8 6.2 14.8 11.1 17.9l-9.1-27c12.4 22.4 34.9 36.2 51.8 40 9.5 2.1 22.8 1.2 30.3-5.4-.1 0-8.8-31.7-22.5-47.6z" fill="#cf534a"/><g><path d="m133.3 262.4c-6.3 10.1-17.6 16.8-30.4 16.8s-24.1-6.7-30.4-16.8c-33.5 16-43.3 60.6-45 101.1h150.9c-1.8-40.5-11.6-85.2-45.1-101.1z" fill="#6dcfd5"/></g><g><g><path d="m49.9 363.6c-1.6-19.6.3-39.1 5.6-58l2.9.8c-5.2 18.5-7 37.7-5.5 56.9z" fill="#fff"/></g><g><path d="m155.9 363.6-3-.2c1.5-19.2-.3-38.4-5.5-56.9l2.9-.8c5.3 18.8 7.2 38.3 5.6 57.9z" fill="#fff"/></g></g><g><g><path d="m104.2 279.2c2.7 5.8 8.6 9.8 15.4 9.8 9.4 0 17-7.6 17-17 0-3.5-1-6.7-2.8-9.4-.2-.1-.3-.2-.5-.2-6.1 9.8-16.8 16.4-29.1 16.8z" fill="#fff"/></g><g><path d="m86.2 289c6.8 0 12.7-4 15.4-9.8-12.3-.4-23-7-29.1-16.8-.2.1-.3.2-.5.2-1.8 2.7-2.8 5.9-2.8 9.4 0 9.4 7.6 17 17 17z" fill="#fff"/></g></g></svg>